<?xml version="1.0" standalone="no"?>
<!DOCTYPE svg PUBLIC "-//W3C//DTD SVG 20010904//EN"
 "http://www.w3.org/TR/2001/REC-SVG-20010904/DTD/svg10.dtd">
<svg version="1.0" xmlns="http://www.w3.org/2000/svg"
 width="160.000000pt" height="160.000000pt" viewBox="0 0 160.000000 160.000000"
 preserveAspectRatio="xMidYMid meet">
<metadata>
Created by potrace 1.14, written by Peter Selinger 2001-2017
</metadata>
<g transform="translate(0.000000,160.000000) scale(0.100000,-0.100000)"
fill="#000000" stroke="none">
<path d="M715 1521 c-3 -5 -2 -12 3 -15 5 -3 9 1 9 9 0 17 -3 19 -12 6z"/>
<path d="M683 1491 c-5 -19 -28 -21 -55 -5 -6 4 -8 3 -5 -3 4 -6 0 -13 -8 -16
-9 -4 -12 -1 -8 9 3 7 1 14 -4 14 -5 0 -9 -11 -9 -23 0 -20 5 -23 25 -21 14 1
29 -3 34 -9 6 -8 7 -6 3 5 -3 10 -1 20 4 23 4 3 10 0 12 -7 3 -7 10 2 16 20 6
17 9 32 6 32 -3 0 -8 -9 -11 -19z m-33 -25 c0 -2 -7 -7 -16 -10 -8 -3 -12 -2
-9 4 6 10 25 14 25 6z"/>
<path d="M695 1460 c-3 -5 -1 -10 4 -10 6 0 11 5 11 10 0 6 -2 10 -4 10 -3 0
-8 -4 -11 -10z"/>
<path d="M725 1440 c-4 -6 -1 -9 7 -8 7 2 12 -2 11 -9 -2 -7 4 -10 12 -7 8 4
15 10 15 16 0 5 -4 6 -10 3 -5 -3 -10 -1 -10 4 0 14 -17 14 -25 1z"/>
<path d="M783 1425 c0 -8 4 -12 9 -9 5 3 6 10 3 15 -9 13 -12 11 -12 -6z"/>
<path d="M855 1411 c-3 -6 -14 -8 -25 -6 -12 2 -18 0 -15 -4 2 -5 -4 -11 -15
-14 -11 -3 -23 1 -28 8 -6 11 -11 11 -27 -2 -20 -15 -20 -15 3 -8 12 3 22 2
22 -3 0 -15 73 -7 78 8 3 9 6 9 13 -1 6 -10 8 -7 6 9 -1 24 -3 26 -12 13z"/>
<path d="M653 1371 c0 -11 5 -18 9 -15 4 3 5 11 1 19 -7 21 -12 19 -10 -4z"/>
<path d="M740 1360 c0 -5 6 -13 13 -17 25 -15 28 -41 4 -45 -20 -3 -19 -4 5
-9 15 -4 25 -3 22 2 -2 4 4 13 13 19 17 11 17 11 -1 6 -13 -5 -17 -2 -12 9 3
8 1 15 -5 15 -6 0 -7 4 -4 10 4 6 -1 7 -11 3 -12 -4 -15 -3 -10 5 4 7 2 12 -3
12 -6 0 -11 -4 -11 -10z"/>
<path d="M835 1360 c-4 -6 1 -7 11 -3 13 5 15 3 9 -7 -5 -9 -4 -11 4 -6 6 4 9
12 6 17 -8 12 -22 12 -30 -1z"/>
<path d="M667 1311 c-3 -13 0 -18 7 -15 7 3 13 11 13 19 0 22 -14 18 -20 -4z"/>
<path d="M788 1263 c7 -3 16 -2 19 1 4 3 -2 6 -13 5 -11 0 -14 -3 -6 -6z"/>
<path d="M550 1209 c-224 -44 -316 -120 -303 -250 11 -105 12 -101 -41 -130
-169 -92 -231 -226 -163 -354 33 -63 50 -82 112 -130 52 -39 137 -81 220 -108
43 -15 72 -21 180 -42 102 -20 329 -20 425 0 14 3 43 8 65 11 61 9 202 52 248
76 185 93 277 225 241 346 -11 39 -10 46 13 95 56 113 24 222 -74 255 -26 9
-44 7 -85 -6 -29 -9 -57 -16 -63 -17 -5 0 -10 21 -10 47 -1 37 -8 56 -31 84
-36 45 -128 95 -199 109 -16 3 -41 8 -55 11 -14 3 -36 7 -50 10 -14 3 -95 7
-180 9 -123 3 -175 0 -250 -16z m964 -331 c24 -30 17 -101 -13 -131 l-21 -21
-42 41 c-24 22 -58 48 -75 57 -38 19 -42 39 -13 64 43 36 129 31 164 -10z"/>
</g>
</svg>
